/* XPM */
static char *_9662_5d58fd13224a470ddaf061b294c458763fe37b32fd7143026b02f3ac78b8591e[] = {
/* columns rows colors chars-per-pixel */
"80 80 249 2 ",
"   c #7D5400",
".  c #855400",
"X  c #855B00",
"o  c #945C00",
"O  c #8C6800",
"+  c #946700",
"@  c #926C00",
"#  c #977702",
"$  c #9D7500",
"%  c #92781A",
"&  c #A06B00",
"*  c #BA6900",
"=  c #A67900",
"-  c #B57600",
";  c #CC6500",
":  c #CD6C02",
">  c #D26E00",
",  c #CD7300",
"<  c #C47A05",
"1  c #CC7B00",
"2  c #D47300",
"3  c #D97300",
"4  c #D57B00",
"5  c #DB7D00",
"6  c #D0780A",
"7  c #C47F10",
"8  c #AB8500",
"9  c #B38201",
"0  c #B88700",
"q  c #BD8A00",
"w  c #A89000",
"e  c #BA9700",
"r  c #AB932F",
"t  c #CC8402",
"y  c #C88505",
"u  c #C38C00",
"i  c #CC8B00",
"p  c #D58400",
"a  c #DC8400",
"s  c #D48B00",
"d  c #DC8B01",
"f  c #D3870D",
"g  c #C79500",
"h  c #D49400",
"j  c #DC9400",
"k  c #D59A00",
"l  c #DC9C01",
"z  c #DA970D",
"x  c #C89016",
"c  c #D99B15",
"v  c #DD9D1A",
"b  c #E48600",
"n  c #E38D00",
"m  c #EA8D00",
"M  c #E49401",
"N  c #EB9300",
"B  c #E49B01",
"V  c #ED9B00",
"C  c #E5970C",
"Z  c #F39900",
"A  c #F19C00",
"S  c #E19E17",
"D  c #CAA300",
"F  c #D5A703",
"G  c #DCA301",
"H  c #DCAC00",
"J  c #CDB308",
"K  c #D9B300",
"L  c #DBA618",
"P  c #E4A301",
"I  c #EDA200",
"U  c #E4AB01",
"Y  c #EDAB01",
"T  c #E8A40C",
"R  c #E3AC0B",
"E  c #ECAD0B",
"W  c #F1A400",
"Q  c #F6A505",
"!  c #F4AC00",
"~  c #FAAE00",
"^  c #E4B301",
"/  c #ECB400",
"(  c #E5BA01",
")  c #ECBB02",
"_  c #EBB50B",
"`  c #E9BA0C",
"'  c #F6B200",
"]  c #FAB400",
"[  c #F3BB01",
"{  c #FBBC00",
"}  c #F8BF0A",
"|  c #E6A917",
" . c #E6AD14",
".. c #F3AC1B",
"X. c #E8B517",
"o. c #F4B918",
"O. c #D09831",
"+. c #DBA825",
"@. c #DAB52C",
"#. c #D9A535",
"$. c #E3AC24",
"%. c #E9B628",
"&. c #F3BA29",
"*. c #E5B637",
"=. c #F2BE34",
"-. c #EAC604",
";. c #F5C301",
":. c #FDC400",
">. c #F4CC01",
",. c #FECB00",
"<. c #F6C70A",
"1. c #F3CC0B",
"2. c #EFDC01",
"3. c #F7D605",
"4. c #FED301",
"5. c #FEDB01",
"6. c #FCDC0C",
"7. c #EAC518",
"8. c #F9C618",
"9. c #F9D816",
"0. c #FEE301",
"q. c #FFEB01",
"w. c #FEE40A",
"e. c #FEEC0C",
"r. c #FFF201",
"t. c #FFF20E",
"y. c #FDE413",
"u. c #FEEC14",
"i. c #FDE41B",
"p. c #FEED1C",
"a. c #FFF213",
"s. c #FFF21C",
"d. c #DAC42E",
"f. c #EACA27",
"g. c #F7C527",
"h. c #F7D628",
"j. c #EBC738",
"k. c #FFC935",
"l. c #F9C839",
"z. c #EBD93D",
"x. c #F9D637",
"c. c #FDE826",
"v. c #FEEB2C",
"b. c #FEF124",
"n. c #FEF32A",
"m. c #FFFB28",
"M. c #FEE938",
"N. c #FEF433",
"B. c #FEF43C",
"V. c #FFFB39",
"C. c #948C52",
"Z. c #A79C52",
"A. c #B3A952",
"S. c #AEAB6B",
"D. c #DCAA4B",
"F. c #DAA954",
"G. c #C3B458",
"H. c #E8BC48",
"J. c #E6BC54",
"K. c #D9AA69",
"L. c #D6B16C",
"P. c #E5BB74",
"I. c #D3C958",
"U. c #E9C448",
"Y. c #F2C547",
"T. c #F5CF4A",
"R. c #E9D34B",
"E. c #F9D648",
"W. c #EBC958",
"Q. c #F3CD56",
"!. c #FADA52",
"~. c #F5D65A",
"^. c #FCE443",
"/. c #FFEC44",
"(. c #FCE44B",
"). c #FFED49",
"_. c #FEF645",
"`. c #FFFD44",
"'. c #FFF54A",
"]. c #FFFD4A",
"[. c #FEEC54",
"{. c #F4E558",
"}. c #FDEB5D",
"|. c #FEF354",
" X c #FDF953",
".X c #FFF25C",
"XX c #FEFA5C",
"oX c #CAC171",
"OX c #EBCA64",
"+X c #F1CC66",
"@X c #EED864",
"#X c #F8DB67",
"$X c #EBC679",
"%X c #EBD373",
"&X c #FAD973",
"*X c #F6E667",
"=X c #FEEE63",
"-X c #FEEE6B",
";X c #FEF264",
":X c #FEF36D",
">X c #FDFB69",
",X c #EBE279",
"<X c #FBEC72",
"1X c #F8E57A",
"2X c #FEF373",
"3X c #FDFA73",
"4X c #FEF27C",
"5X c #FFFB7C",
"6X c #B7B781",
"7X c #D8AD82",
"8X c #DDB588",
"9X c #DDB996",
"0X c #E1BC96",
"qX c #D8D488",
"wX c #D1D291",
"eX c #ECCA86",
"rX c #F7D986",
"tX c #F7DB9B",
"yX c #E8E384",
"uX c #F6E587",
"iX c #FEF482",
"pX c #FCF987",
"aX c #FFF58B",
"sX c #FAE494",
"dX c #FEF594",
"fX c #FEFC94",
"gX c #FEF79B",
"hX c #FEFB9C",
"jX c #E6C8AA",
"kX c #F1D5A6",
"lX c #E7CBB5",
"zX c #E9ECA2",
"xX c #FBE5A9",
"cX c #F9F6A3",
"vX c #FEFBA4",
"bX c #FFFFAC",
"nX c #FCEABA",
"mX c #FFFFB3",
"MX c #FFFFBA",
"NX c #ECD5C6",
"BX c #EDD7C8",
"VX c #F8E7C7",
"CX c #FDF2CE",
"ZX c #F5E8DA",
"AX c #F5EAE6",
"SX c #FCF4E9",
"DX c #F7EEF0",
"FX c #FBF6F6",
"GX c #FFFFFF",
/* pixels */
"GXGXGXGXGXGXGXGXGXGXGXGXGXGXGXGXGXGXGXGXGXGXGXGXGXGXGXGXGXGXGXGXSXVXsXuX&X#X!.!.!.!.*X&X1XsXnXSXGXGXGXGXGXGXGXGXGXGXGXGXGXGXGXGXGXGXGXGXGXGXGXGXGXGXGXGXGXGXGXGX",
"GXGXGXGXGXGXGXGXGXGXGXGXGXGXGXGXGXGXGXGXGXGXGXGXGXGXGXGXSXsXE.h.9.i.c.p.u.e.a.a.b.n.N._.'.XX X(.E.~.uXVXGXGXGXGXGXGXGXGXGXGXGXGXGXGXGXGXGXGXGXGXGXGXGXGXGXGXGXGX",
"GXGXGXGXGXGXGXGXGXGXGXGXGXGXGXGXGXGXGXGXGXGXGXGXGXSXrXx.6.6.0.5.q.q.q.q.0.0.5.2.3.y.y.p.n.m.V.`.`.XX>X[.!.&XCXGXGXGXGXGXGXGXGXGXGXGXGXGXGXGXGXGXGXGXGXGXGXGXGXGX",
"GXGXGXGXGXGXGXGXGXGXGXGXGXGXGXGXGXGXGXGXGXGXGXVXE.3.6.5.5.5.5.>.U k s p s j k G l l k h s s c X.h.V.`.]. X3X=X!.xXGXGXGXGXGXGXGXGXGXGXGXGXGXGXGXGXGXGXGXGXGXGXGX",
"GXGXGXGXGXGXGXGXGXGXGXGXGXGXGXGXGXGXGXGXGXVXj.6.4.4.4.5./ p p l ) 3.0.q.q.q.q.q.q.q.r.q.r.q.0.-.G i h f._.].].>X2X!.sXGXGXGXGXGXGXGXGXGXGXGXGXGXGXGXGXGXGXGXGXGX",
"GXGXGXGXGXGXGXGXGXGXGXGXGXGXGXGXGXGXGXSXT.5.4.4.4.;.s 4 Y 5.0.5.5.,.:.{ { ! ! ] ] ] / 2.[ :.>.q.q.r.q.( t g h.].].XX2XE.nXGXGXGXGXGXGXGXGXGXGXGXGXGXGXGXGXGXGXGX",
"GXGXGXGXGXGXGXGXGXGXGXGXGXGXGXGXGXGX&X9.6.4.5.' 4 j ,.5.,.:.:.,.3.k G u u ] ] q $ $ w -.! ! k 2.P ' :.q.r.0.G t f.].].>X}.#XFXGXGXGXGXGXGXGXGXGXGXGXGXGXGXGXGXGX",
"GXGXGXGXGXGXGXGXGXGXGXGXGXGXGXGXCXY.9.4.5.;.4 M ,.4.:.' ] ] ] ] :.e e J g ] ] K 5.3.3.-.~ ] F q.D ] ! -.w.0.q.q.U t f.`.`.>XE.nXGXGXGXGXGXGXGXGXGXGXGXGXGXGXGXGX",
"GXGXGXGXGXGXGXGXGXGXGXGXGXGXGXtXx.i.0.0.p d ,.,.,.' ] l @ @ P q # 4.4.4.K ' ] H 5.5.5.( ! ] F q.F ' ! -.0.0.>.{ 0.q.G y B.]. X{.&XGXGXGXGXGXGXGXGXGXGXGXGXGXGXGX",
"GXGXGXGXGXGXGXGXGXGXGXGXGXGX+X*Xv.p.7.2 ' ,.:.:.[ ' ! 8 ,.4.8 F 4.,.,.4.^ ! ' U 4.4.4.^ ] ! K 0.K ! ' ( 0.>.! ! ] F q.5.1 7.`._.>XT.GXGXGXGXGXGXGXGXGXGXGXGXGXGX",
"GXGXGXGXGXGXGXGXGXGXGXGXGXY.4X[. Xv a ,.:.:.:.:.U ! ! ) ,.:.:.{ ] ) ,.,.) Y ] H 4.4.4.U ] I -.5.( U ' ( ,.! ] ' # J 0.0.r.H f V.N.>Xx.FXGXGXGXGXGXGXGXGXGXGXGXGX",
"GXGXGXGXGXGXGXGXGXGXGXGXY.aX5X2Xf V { ! ' { { :.g ] ' ' :.,./ ] ] g ,.,.) P ! F ,.,.,.U ] G >.4.>.U ] U ! { l # 3.0.5.;.! 5.>.1 n.m. XE.SXGXGXGXGXGXGXGXGXGXGXGX",
"GXGXGXGXGXGXGXGXGXGXGXY.gXiX4X, ! ' ' ' ! ' { { F j { ] ' { ] ' = / :.:.:.8 $ F ,.,.,.8 @ 8 4.,.>.G ] ] ] u w 0.5.4.' ! ' ! ;.5.1 9.m. Xx.FXGXGXGXGXGXGXGXGXGXGX",
"GXGXGXGXGXGXGXGXGXGXH.iX2X<X: ' ' ' ' Y { ' ! ' { 8 - Y Y h = @ / :.:.:.:.:.,.:.:.:.,.,.,.,.,.,.4.8 h ] 8 D 5.5.>.! ' ] Y ! ! { 5.1 9.s._.l.GXGXGXGXGXGXGXGXGXGX",
"GXGXGXGXGXGXGXGXGXOX<X}.-X: ! Y h ] ] O 9 ] ] ~ ' :.G = = q ' :.{ ] { 8.h.x.^.(.(.(.(.x.9.,.:.:.,.,.e @ H 4.4.{ ! ~ ] u O ] ' k >.0.< 9.t._.T.GXGXGXGXGXGXGXGXGX",
"GXGXGXGXGXGXGXGXkX{.v.'.: ! ! ! u ] ] I l ] { ] ] k { { :.{ ] } 9.c.b.e.q.q.q.e.p.b.n._.;X5X2X(.<.:.,.4.,.,.F ] ] ] ] H -.' ] g 5.5.5., e.r.'.#XGXGXGXGXGXGXGXGX",
"GXGXGXGXGXGXGXZXx.w.s.6 A Q W ~ u ' ] ! ] ' + q O h ] ' ' :.9.6.5.5.0.0.0.0.q.0.q.e.p.b.n.n.B.'.5X5Xx.:.:.,.^ @ q + Y { ~ ' ! D 4.4.5.4., r.r.M.xXGXGXGXGXGXGXGX",
"GXGXGXGXGXGXGXU.e.q.h n ! I W W B h ] ] k + Y h ! ] ! { ,.4.4.4.4.5.5.5.5.0.0.0.0.q.q.q.u.b.b.N.B._.>XpXx.:.,.,.H >.$ g ] ] k ;.,.,.,.4.[ p r.e.E.FXGXGXGXGXGXGX",
"GXGXGXGXGXGX$Xy.5.) 3 W W W W W ! 0 ] ] u ~ W ! ! ! :.,.,.,.4.4.4.4.4.5.5.5.0.0.0.0.0.q.q.e.u.b.n.N.N.V.3X5X1.:.,.:.4.g ] ] g ,.,.,.,.,.4.B U q.b.Q.GXGXGXGXGXGX",
"GXGXGXGXGXSX1.4.5.; W V V I V W W t ! G - ~ W W Y ,.,.,.,.,.,.,.,.4.4.4.4.5.5.5.0.0.0.0.0.q.q.q.u.p.n.N.N._.fXE.{ :.,.g k ! D ,.,.:.,.,.,.5., 5.0.c.xXGXGXGXGXGX",
"GXGXGXGXGXH.6.4.4 N V V V V V V I A & & Q W W ' :.:.;.:.;.,.,.,.,.,.,.,.4.4.3.4.5.5.5.0.0.0.0.q.0.q.e.s.b.n.N.>X<X{ :.,.0 $ :.:.:.:.,.,.:.,.,.1 q.q.x.GXGXGXGXGX",
"GXGXGXGXVX1.,.[ 3 A V V V V V V V W M W V V ' :.{ :.:.:.:.:.:.,.,.,.,.,.,.,.4.4.>.5.5.5.5.0.0.0.q.q.q.q.e.p.b.n. X4X{ { ,.[ :.:.:.:.:.:.:.:.,.B ^ 0.c.rXGXGXGXGX",
"GXGXGXGX*.,.,.2 N N N V V N V V V V V V V ! { { [ { :.{ :.:.:.:.:.,.,.,.,.,.,.;.! >.4.3.5.5.5.0.0.0.0.0.q.q.e.u.p._.4X' :.{ :.{ :.:.:.:.:.:.:.,., 5.0.h.GXGXGXGX",
"GXGXGXVX>.:.Y 3 V N N N N V N V V N V N I { ' ' { { { { :.[ :.:.;.:.:.,.,.,.4./ ! Y 4.4.4.4.5.5.5.0.0.0.0.0.q.q.e.e._.<X] { { :.{ :.{ :.:.:.:.:.I P 5.y.tXGXGXGX",
"GXGXGXH.,.:.: N N N N M N N N N N N V V ' ' ' ' ' { { { [ :.{ :.:.:.:.:.,.,.) ~ ' ! ;.4.,.4.4.4.5.5.5.0.0.0.0.q.q.q.q. XE.] { ] { { { { { :.:.:.,., 5.5.x.GXGXGX",
"GXGXFX` ] ! 3 N N N N N N N N N N N N ! ! ! ! ' ' ' { ' ' { [ { :.{ { :.:.;.Y ' ' ! Y ,.,.,.4.4.4.4.5.5.5.5.0.0.0.0.q.q.pX<.] { ' { { { { { { :.{ V U 5.9.nXGXGX",
"GXGXeX:.] 2 N N N N N N N N M N N m V ! ! ! ! ! ! ' ' ' ' { { { { { :.:.:./ ! ] ' ' ' / 4.,.,.,.,.4.4.4.5.5.5.5.0.0.0.0.0.iX! ] ] { { ] { ' { { { :., 5.5.+XGXGX",
"GXGX*.' ] ; N N m m N m m N m N N N Y W W ! ! ! ! ! ' ' ' ' ' { ' [ { [ ' ! ' ' ' ' ' ! ;.,.,.,.,.,.,.4.4.4.5.5.5.5.0.0.0.B.E.! ' ' ' ] ' { { ' { :.4 ,.4.h.GXGX",
"GXDX) W n a N N N M B N N N N N n V W W I W W ! ! ! ! ! ! ' ' ' ' { ] { U ' ' ' ' ' ' ] U ,.,.,.,.,.,.,.4.4.,.4.5.5.5.5.0.0.5XW ~ ' ' ] ] ' o.] ] ] Y j 4.3.VXGX",
"GXtX' W > V N N N d I m N m m N n V I I I W W W W I W ! ! ! ! ! ' ' ] U ' ' ' ' ] ! ' ! ' ) :.:.,.,.,.,.,.,.,.4.4.4.4.5.5.5.v.T.Q ! ! ' ! o.| ~ ] ] { > 5.4.#XGX",
"GXJ.Y A > A N N N j ' N N N N N n V V V V I W I I W W ! ! ! ! ! ' ! ! Y ] ' ' ' ' ' ' ' ] Y :.:.:.,.:.,.,.,.,.,.,.4.4.4.3.5.5.4XW W ! ! ! l.E E ! ' { 3 ,.4.h.GX",
"GX$.A M 5 M l I ! M ! h d k M b N V V V V V V W W I W W I ! W ! ! ! Y ' ! ' ' ' ' ' ' ' ' ! / :.:.:.;.:.:.,.,.,.,.,.,.,.4.4.4.|.o.P $.| C =.~ g.&.%. .b Y 4.1.GX",
"FXY N 5 N V j j j j s ! ! j N b V V V V V V V V V W I I W W W ! ! I Y ' ' ' ' ! ! ' ' ' ' ' ! { ;.:.:.:.:.:.:.,.,.,.,.,.,.4.,.3.#XV P =.k.| L T T L W I d 4.3.VX",
"ZXY N 2 W A A M ] j Y j M V V 5 N N N N V V V V V V I V V I I W W P ' ' ' ' ' ' ' ' ' ' ' ' ] U { { :.{ :.:.:.,.:.:.,.,.,.,.4.,.2XZ W V L E | k.| ! ! ! 2 5.6.sX",
"kXY N 3 W W V W P N ' I B Z m b N N N V N N V N V V V V I A I W V ' ' ' ' ' ] ' ' ] ' ' ~ ' ' ! / { [ { [ :.:.:.;.:.,.,.,.,.,.,.;XW W I V E.T | &.A W ! , 0.w.rX",
"eXY m 5 W W W P j B B P B A a N N N N N N N N V N V V V V V V V P ] ' ' ' ' ! ' ' ! ' ' ' ' ' ' Y { { { { { { :.:.:.:.:.:.,.:.,.x.%.Z C =.z V C %.W W ! > 5.6.+X",
"P.I N p ! ! W j I W W I l W 5 N N N N N N N N N N V V N N V V M ' ' ' ! ' ' ' ~ ' ' ' ] ' ] ' ' ! Y { ' { [ { [ { :.:.:.:.:.:.,.9.Y.N v M V V V z V W W 3 3.0.Q.",
"J.I N b ' ! ! ! ! I W W W W 5 N N n m N m N N N N N V N V V N Y ] ' ' ] ' ' ' ' ' ' ' ! ' ! ' ' ! Y ! ' { ] { { [ { [ :.:.:.:.;.,.~.N Z A A V V A V V W > 9.u.T.",
"J.! N n ' ! ! ! ! ! ! ! W ! 5 N N N N N N N m N M N N N V N M ] ! ' ' ' ' ' ' ' ] ! ' ' ' ' ] ' ' ' Y ] ' ' ' { { { { { { :.:.:.:.#Xm V V N A V V V V A 3 j.M.T.",
"J.! V M ] ] ' ~ ! ! ! ! ! ' 4 N N N N n n N N N N N N N N n Y ' ' ' ' ' ' ! ' ' ' ' ' ' ' ! ! ' ' ' Y Y ' ' ' ' ' ' { [ { { { [ :.~.m N N V N Z V V N A 3 R. XQ.",
"J.' I M { ] ' ' ] ~ ' ~ ! ] 4 A N N N N N N N N m M N N N B ] ' ' ' ' ' ' ' ' ' ! ' ' ' ' ' ' ' ' ' ] P ! ! ' ! ' ' ' ' { { { [ { ~.m N N N m N N V V V 3 Q.2XQ.",
"J.{ ! B { { _ %.{ ] ]  ._ ] 5 W V V V N N N N N N N m N d ! ' ' ' ' ] ! ' ! ' ' ] ' ' ! ! ] ' ' ' ' ' ! I ! ! ! ' ' ' ' ' { ] { { ~.m M | N Z m %.S N N 2 @X5XQ.",
"P.,.' M :.{ { X.l.o.R &.! { 5 W W I V N V N N N N m N M I ' ' ' ' ] ' ' ' ] ! ] ' ' ] ' ' ' ' ! ' ' ' ] Y W ! ! ! ! ! ' ' ' ' { ' Q.m m %.z C =.S N N V > &XpX+X",
"P.4.:.M :.:.{ ' o.o.g.&.{ { 4 ] ! W W W V V V N N N N n ' ' ' ' ' ! ' ' ' ' ' ] ' ! ' ' ' ' ' ' ! ' ' ' ' B W ! ! ! ! ! ' ! ' ' } l.m m C E.C &.n m N V ; *XaX+X",
"0X4.:.B :.:.8.k.X.| _  .{ :.p ] ! ! ! W W W V V V V M I ' ] ' ' ! ' ' ] ] { { ] { { ] ] ] ] ~ ] ' ] ' ' ' Y V W I ! W ! ! ! ! ' g...n N C f v c l...N N ; :XpX%X",
"lX3.4.B ,.%.X./ o.X.l.8.X.:.I V ] ] ! ! ! W W V V Z B ] ' ! ' ~ ] { ] P u = + O X + + = u P ] { ] ] ' ! ' ] B W W W W W ! W ! ! E.M N c ..l.v ..a S $.C : .X2XrX",
"ZX;.4.I :.[ _ _ Y.:.X.X.X. .:.p :.{ ' ' ' ! ! W W B ! ] ' ] { Y - X . o * p d b b n d p - o . X - Y { ] ] ! ' N I W W W W ! W W !.m C S S v n l.| d C b f B.}.kX",
"GX .,./ ;.,.,.,.g.o.:.,.:.:.,., ,.{ { { ] ' ' ! W Y ] ] ] g X o t N Z Z N N N N N N N N Z Z Z Z y o X u { ] ' P V V W I I W W W Y.N N N m N C =.n N N b c s.x.CX",
"GX*.,.:.Y 4.4.4.o.` ,.,.:.:.,.d { :.:.{ { { ' ] Y ] { i X - A Q A V N N N m M N N N N m N M N N N Z N - . q { ] M V I V W W A g.T Z V N V N C $.m N N 3 ;.q.j.GX",
"GXK.4.:.P 5.4.,.<.>.4.,.,.,.,.:.p ,.:.:.:.:.{ { ' Y X 9 ] ~ W I W V V V V N N N N m N N N m N N N N N Z Z -   Y ! N V V V I V Y.N V V N V V N z Z N N ; 0.w.W.GX",
"GXlX;.{ B 5.4.4.4.4.4.,.,.,.,.4.1 4.,.,.:.:.:.] q @ { { ! ! ! ! W W W V V N V N N N n N m N N N N M N N V Z Z . 0 A V V V V E &.V A V V V V N V N V Z 2 0.y.eXGX",
"GXGXR { ! ;.5.5.4.4.4.4.4.4.4.4./ j 4.,.,.,.:.$ g ,.{ ] { ' ~ ! ! ! W W I A V V N N N N N N N N m N N N N N N Z - + N V N N l.A V W A I V V A V V V b P 5.1.ZXGX",
"GXGXD.{ ] U 0.5.5.5.4.3.4.4.4.4.5.1 4.4.,.,.( ^ ,.:.:.{ { { { ] ' ' ! ! W W I V V V V N N N N N N N n N N N N N Z p d N N V o.W W Q Q W W A A V V W : 4.4.=.GXGX",
"GXGXjX[ ~ M 0.5.5.5.5.5.5.5.%.1.4.,.1 0.4.4.,.4.,.,.,.:.:.:.{ { ] ' ] ! ! ! W W I V A V N N N N N m N N N N m N N N N N N j.W ! W $.W I W I W I I A 4 4.3.$XGXGX",
"GXGXGXL ! W ) 0.5.5.w.0.0.3.g.3.5.5.h ^ 5.5.4.4.,.,.,.,.:.:.:.{ { { ] ' ' ! ! ! ! W W V V V V N N N N N m m N N N N N N ..E ! ! W =.T Q W ! Q I W 5 ' :.<.ZXGXGX",
"GXGXGXL.' W B p.0.0.L =.k.1.k.8.0.5.q.; 5.5.4.5.3.4.4.,.,.,.,.:.:.:.:.{ { ] ] ! ! ! W W W I A V V N N N N M N m N N N C o.~ ] ~ ! T.P k.=.+.I ! ! 3 ,.,.H.GXGXGX",
"GXGXGXDXU Z N f.c.i.6.1.7.8.7.2.7.X.7.0.* 0.6.4.4.4.4.4.,.,.,.,.:.:.:.:.{ { { ] ' ] ! ! W W W V V V V N N N N N N m N X.] E $. .E  ...| P E ! ' n I :.>.nXGXGXGX",
"GXGXGXGXF.' Z j B.v.c.h.h.@.%.l.&.7.0.0.3.* q.0.5.5.4.4.4.4.4.,.,.,.:.,.:.:.:.{ { { ' ] ! ! ! W W W V V V V N N N N R { { ] E &.l.%.L g.E ~ ! ] 2 { :.%.FXGXGXGX",
"GXGXGXGXDXG N m j.'./.x.j.x.h.f.y.y.w.0.q.>.* 0.0.5.5.5.5.4.4.4.4.,.,.,.,.:.:.:.{ { { ] ' ' ! ! ! W W V V V V N N P { { { { { {  .] g.E l.! ] n V ' ;.BXGXGXGXGX",
"GXGXGXGXGXK.' N b .X(.*.z.j.l.h.v.c.c.y.y.w.3.* 5.q.0.5.5.5.5.4.4.4.4.,.,.,.,.:.:.:.:.{ { { ] ' ! ! ! W W W I V B :.:.:.:.:.{ { ' g.%.E | o.{ 4 ' { #.GXGXGXGXGX",
"GXGXGXGXGXGXx V m $.@X~.|..Xj.j.).M.M.M.v.c.i.u.* ^ r.0.5.0.5.5.4.4.4.4.4.,.,.,.,.:.:.:.:.{ { { ' ' ! ! ! ! N P ,.:.:.:.:.:.{ :._ %.{ :.' X.p I W ^ DXGXGXGXGXGX",
"GXGXGXGXGXGXlXU m b R.5X-X=X;XU.}.[.[.)./.M.M.v.m.z < 5.q.0.0.5.5.5.5.5.4.4.4.4.4.,.,.,.:.:.:.{ { { { ] ! d ' 4.,.,.,.:.:.:.:.:.X.{ :.{ ,.V n A [ $XGXGXGXGXGXGX",
"GXGXGXGXGXGXGXF.Y N b <X4X<X2X:X-X=X=X}.[.[.).^.M._.c.- h 0.q.0.0.5.5.5.5.4.4.4.4.,.,.,.,.:.:.:.:.:.{ M B 4.4.,.,.,.,.,.,.:.:.,.:.:.:.:.{ 2 Z ! $.GXGXGXGXGXGXGX",
"GXGXGXGXGXGXGXGXv I N d fXaX4X4X4X<X<X-X=X=X}.}.[.[.).'.j.7 u >.q.q.0.0.5.5.5.4.4.4.4.4.,.4.4.4.' d l ,.5.4.4.,.4.,.,.,.,.,.,.:.,.:.,.,.2 V V ^ AXGXGXGXGXGXGXGX",
"GXGXGXGXGXGXGXGXZXz V M c hXaXaXiXiX4X4X4X<X-X;X-X}.[.[.|.'.^.+.< y H 3.0.q.q.0.0.0.0.5.>.B s h / 5.0.4.3.5.4.4.4.4.,.4.,.4.,.,.,.,.4.5 N m ) kXGXGXGXGXGXGXGXGX",
"GXGXGXGXGXGXGXGXGXlX^ V N S bXdXdXaXaXiXiX4X4X<X<X:X-X-X;X=X[..XXX/.j.c y y t t i t i h G >.q.q.0.0./ ! ) 5.5.5.5.4.4.4.4.4.4.,.4.4.p n m / P.GXGXGXGXGXGXGXGXGX",
"GXGXGXGXGXGXGXGXGXGX8X_ V N L bXhXdXdXdXdXaXaXiXiXiX4XiXE.~ ~ ] g.-X}.|.XX'._._.B.n.v.y.6.u.-.' ' 0.D ] / 5.5.5.5.5.4.4.4.4.4.4.5.d m m / F.GXGXGXGXGXGXGXGXGXGX",
"GXGXGXGXGXGXGXGXGXGXGX7X` W V c vXvXvXgXgXdXdXdXaXaXaX#XW ] % u ~ 7.:X-Xg.' ] ] h.'.z.I U c.L ! ! ] J ' ! 2.0.5.5.5.5.5.5.4.6.5.p N N ' D.GXGXGXGXGXGXGXGXGXGXGX",
"GXGXGXGXGXGXGXGXGXGXGXGX7X` Y V j sXbXhXhXgXgXgXdXdXvX&.] r iXoX! I 1Xg.] h # P ~ l.{.U ' R.d.! ' ' Y ! ! -.w.0.0.5.0.5.5.0.>.d I A [ F.GXGXGXGXGXGXGXGXGXGXGXGX",
"GXGXGXGXGXGXGXGXGXGXGXGXGX9X` / I B OXMXvXvXvXgXgXgXcXT ~ L.fXpXC.Z.yX! I S.4XZ.] Y *XU ! z.R.Y ] ! ] ] ~ _ u.y.w.0.0.0.q.^ M ~ ! ;.K.GXGXGXGXGXGXGXGXGXGXGXGXGX",
"GXGXGXGXGXGXGXGXGXGXGXGXGXGXNXc ;.! I +.cXbXvXvXcXvXcXL Q yXbXaX4XvX%X! R aXpX,XW ! ,XL ] U.*XP ] % l ] ! ! v.v.c.9.i.y.l ' { { ) 0XGXGXGXGXGXGXGXGXGXGXGXGXGXGX",
"GXGXGXGXGXGXGXGXGXGXGXGXGXGXGXAXO.1./ ! B OXbXbXvXvXvXA.~ o.*Xo.Q j.qX~ R cXhXyX! ! yX+.~ *.5XJ ] j.A.q ! 9 z.^.B.B.X.P :.:.3.L NXGXGXGXGXGXGXGXGXGXGXGXGXGXGXGX",
"GXGXGXGXGXGXGXGXGXGXGXGXGXGXGXGXGXL.R -.' I T @XbXbXvXzXr h ~ ] P Z.zXh ] l.1X&.{ x vX@.' j.aX@.]  .5XI.r I.;X.Xj.P :.,.4.<.F.FXGXGXGXGXGXGXGXGXGXGXGXGXGXGXGXGX",
"GXGXGXGXGXGXGXGXGXGXGXGXGXGXGXGXGXGXBXO.1.;./ U T W.vXbXcX6XC.C.S.vXbXS.y ~ ~ ! 0 6XbX#.j x fXG.C.A.5X5XpX4XU.U [ ,.4.6.L jXGXGXGXGXGXGXGXGXGXGXGXGXGXGXGXGXGXGX",
"GXGXGXGXGXGXGXGXGXGXGXGXGXGXGXGXGXGXGXGX9Xc 1.) / Y B *.,XMXmXmXbXvXvXbXwXC.C.C.wXvXhXqXS.wXhXhXhXhXfX@X$.P { { :.4.U K.GXGXGXGXGXGXGXGXGXGXGXGXGXGXGXGXGXGXGXGX",
"GXGXGXGXGXGXGXGXGXGXGXGXGXGXGXGXGXGXGXGXGXGX7XL 1.>.[ ! I j $.W.uXbXbXbXmXmXMXmXmXmXmXbXbXmXvXuXW.$.M V ~ ] { ,.| K.FXGXGXGXGXGXGXGXGXGXGXGXGXGXGXGXGXGXGXGXGXGX",
"GXGXGXGXGXGXGXGXGXGXGXGXGXGXGXGXGXGXGXGXGXGXGXGX9X#.` 1.;.' Y I B M B $.*.H.U.W.W.H.H.*.| z b m N A W ! ' / +.8XFXGXGXGXGXGXGXGXGXGXGXGXGXGXGXGXGXGXGXGXGXGXGXGX",
"GXGXGXGXGXGXGXGXGXGXGXGXGXGXGXGXGXGXGXGXGXGXGXGXGXGXBX7X#.R <.;.) Y I V N N m m m m b m m m N N I ' P L L.BXGXGXGXGXGXGXGXGXGXGXGXGXGXGXGXGXGXGXGXGXGXGXGXGXGXGX",
"GXGXGXGXGXGXGXGXGXGXGXGXGXGXGXGXGXGXGXGXGXGXGXGXGXGXGXGXGXAX9XK.#.z R _ ) [ ' / ! ! ! Y P B k +.F.9XZXGXGXGXGXGXGXGXGXGXGXGXGXGXGXGXGXGXGXGXGXGXGXGXGXGXGXGXGXGX",
"GXGXGXGXGXGXGXGXGXGXGXGXGXGXGXGXGXGXGXGXGXGXGXGXGXGXGXGXGXGXGXGXGXGXAXNXjX0X8X8X8X8X8XjXNXAXGXGXGXGXGXGXGXGXGXGXGXGXGXGXGXGXGXGXGXGXGXGXGXGXGXGXGXGXGXGXGXGXGXGX"
};
