/* XPM */
static char *e17a9de9ba4b4088f3d63da8f380aa18[] = {
/* columns rows colors chars-per-pixel */
"32 32 212 2 ",
"   c #BB7700",
".  c #BD7A00",
"X  c #C17C00",
"o  c #C38500",
"O  c #C48B00",
"+  c #CC8C00",
"@  c #DF8400",
"#  c #DF8908",
"$  c #C69300",
"%  c #CB9400",
"&  c #CD970A",
"*  c #D39200",
"=  c #D79B00",
"-  c #DB9E00",
";  c #DE930C",
":  c #E28300",
">  c #E58D00",
",  c #E98F00",
"<  c #E49201",
"1  c #EB9300",
"2  c #E79C01",
"3  c #EC9B01",
"4  c #E3990D",
"5  c #EB9E0A",
"6  c #F19600",
"7  c #F29D00",
"8  c #EA9E12",
"9  c #CBAA00",
"0  c #DCA400",
"q  c #D6A800",
"w  c #DFAD01",
"e  c #CDA016",
"r  c #D9B21F",
"t  c #E4A300",
"y  c #ECA301",
"u  c #E6AB00",
"i  c #ECAB01",
"p  c #E8A20A",
"a  c #ECAC0F",
"s  c #F1A400",
"d  c #F4AC00",
"f  c #F9AB00",
"g  c #E5B601",
"h  c #ECB301",
"j  c #E4B900",
"k  c #ECBC00",
"l  c #EBB10D",
"z  c #E5BC0F",
"x  c #ECBA0D",
"c  c #F5B200",
"v  c #FAB500",
"b  c #F4BB01",
"n  c #FBBC00",
"m  c #F2B309",
"M  c #FAB708",
"N  c #E5A617",
"B  c #EEAC12",
"V  c #EBA61A",
"C  c #E5AD1A",
"Z  c #ECA91D",
"A  c #F1AC11",
"S  c #E6B011",
"D  c #EBB911",
"F  c #EBB01A",
"G  c #ECBA1B",
"H  c #F0B116",
"J  c #F3BB17",
"K  c #F0B41B",
"L  c #F4BC1B",
"P  c #C8A124",
"I  c #E5A721",
"U  c #EEAD23",
"Y  c #E6A62D",
"T  c #E7AA2F",
"R  c #EDB422",
"E  c #EFBA22",
"W  c #EBB42C",
"Q  c #F3BC22",
"!  c #EBAE34",
"~  c #EFB735",
"^  c #E9B53B",
"/  c #F0BF31",
"(  c #EDC301",
")  c #ECC805",
"_  c #F3C300",
"`  c #FCC300",
"'  c #F4CB00",
"]  c #FECC00",
"[  c #F2C10E",
"{  c #FEC60E",
"}  c #F4CB0E",
"|  c #F7D604",
" . c #FED400",
".. c #FFDC00",
"X. c #FFD30A",
"o. c #EBC312",
"O. c #EBCA13",
"+. c #EECA1C",
"@. c #FDC516",
"#. c #F6CC16",
"$. c #FACE1B",
"%. c #FFD31C",
"&. c #FFE300",
"*. c #FFEA01",
"=. c #FEE40F",
"-. c #FFEB0A",
";. c #FEF112",
":. c #FFF21C",
">. c #EBCB25",
",. c #F0C422",
"<. c #FDCD24",
"1. c #F2C62E",
"2. c #F1C82D",
"3. c #F5D821",
"4. c #F1DE2C",
"5. c #E7C234",
"6. c #E4CA30",
"7. c #ECC03C",
"8. c #EBC93F",
"9. c #F4C93A",
"0. c #F9D633",
"q. c #F8DA3E",
"w. c #FCE226",
"e. c #FEE02B",
"r. c #FEEA2B",
"t. c #FEF324",
"y. c #FFF32B",
"u. c #F2E134",
"i. c #FEEB3B",
"p. c #FFF937",
"a. c #FFF63E",
"s. c #CEB34A",
"d. c #DABB40",
"f. c #E8AD40",
"g. c #E3B042",
"h. c #E9B645",
"j. c #E5BC50",
"k. c #EFBF56",
"l. c #CFBF62",
"z. c #ECBE68",
"x. c #DBC357",
"c. c #FEDA44",
"v. c #F7DF4F",
"b. c #F4CB57",
"n. c #E7D153",
"m. c #F4D35A",
"M. c #FBE344",
"N. c #FBE24A",
"B. c #FEEA4C",
"V. c #FFF344",
"C. c #FEF54A",
"Z. c #FFF94A",
"A. c #FFE953",
"S. c #FCE558",
"D. c #FEEC5B",
"F. c #FFF351",
"G. c #FEFC50",
"H. c #FDF45C",
"J. c #FDF958",
"K. c #D3C666",
"L. c #CCC571",
"P. c #DFD57C",
"I. c #EDC86D",
"U. c #E8D267",
"Y. c #F6D368",
"T. c #F7DA6D",
"R. c #F6DA75",
"E. c #F7DE7A",
"W. c #F6EA6F",
"Q. c #FDEC6B",
"!. c #FFF261",
"~. c #FDE876",
"^. c #FCEB7C",
"/. c #FEF074",
"(. c #FEF27C",
"). c #DEDE96",
"_. c #EECF8A",
"`. c #F5DA8D",
"'. c #EFD597",
"]. c #F3DB94",
"[. c #EEE582",
"{. c #FCEE85",
"}. c #FCED8D",
"|. c #FFF481",
" X c #FEF48A",
".X c #FBE897",
"XX c #F7E498",
"oX c #F9F294",
"OX c #FFF897",
"+X c #FEF29C",
"@X c #FFFB9B",
"#X c #ECD6A1",
"$X c #EDD7AC",
"%X c #F1D9A1",
"&X c #F0DCAB",
"*X c #EEDBBD",
"=X c #FEEFA1",
"-X c #FAF5A1",
";X c #F4F6AE",
":X c #FFF5AA",
">X c #FFFFAC",
",X c #F4FAB3",
"<X c #FFFFB8",
"1X c #F8EDCF",
"2X c #FDF3C3",
"3X c #F3E9DE",
"4X c #FCF3D1",
"5X c #F4EDEA",
"6X c #F4EDF2",
"7X c #FEF7F3",
"8X c #FEF9F6",
"9X c #FFFFFF",
/* pixels */
"9X9X9X9X9X9X9X9X9X9X9X4X}.D.i.r.i.H.(.:X4X9X9X9X9X9X9X9X9X9X9X9X",
"9X9X9X9X9X9X9X9X9X^. ._ h ( ( ( _ ( ) O.u.C.+X8X9X9X9X9X9X9X9X9X",
"9X9X9X9X9X9X9X.X .i i n  .q 0 i % k b ' ' k >.Z.=X9X9X9X9X9X9X9X",
"9X9X9X9X9X9XS.' y ] c % % ] ( d &.b k j ( ..` g 4.!.9X9X9X9X9X9X",
"9X9X9X9X7X(./ s ` h d ] n h b %  .t k k b 3 9 ..b o.a.7X9X9X9X9X",
"9X9X9X9XQ.^ y 0 i n % % % n { $.%.o.` k $ j  .s - b g y.9X9X9X9X",
"9X9X9XN.D 7 - v t O s n X.=.*.*.;.p.J.B.%.n $ - c j  .g i.9X9X9X",
"9X9XXX_ , s 2 i * f `  .]  .....&.*.-.t.G.A.] w t ` ] b ' }.9X9X",
"9X9X] @ 3 7 7 + s ` ` ` ] ] ]  .| &.&.*.*.:.H.{ 0 ] ` ] i &.8X9X",
"9XE.3 , , 3 1 3 f v n n ` ` ] b i  . ...&.*.*.C.n n n ` ` i Q.9X",
"9Xb @ , , , , 7 d d c b v n ` d d ` ] ]  .....*.M.f v v n 2  .9X",
"1X3 > < 3 , < y s s d d c b c f c d ] ] ]  . ...=.Q c v M c h 2X",
"`.: 2 2 2 < , 7 7 s s s s d c c c d h ` ` ] ]  . .0.p K H l y ~.",
"k.: 7 2 t 2 > 3 3 2 7 7 s i c c c c d n ` ` ` ] ] e.6 R F s 2 N.",
"! > s y 3 < , , 1 3 3 3 3 b d d c c c d v n n ` ` X.Z 5 2 p , w.",
"U 3 c d d 2 1 , , , , , d c c c c c c c d c b n ` ` U 1 3 7 : B.",
"E s m M m 3 3 3 , , , 2 v c c c c c c f s d c d v n U < 5 1 : ^.",
"9.c ` E J y d s 7 3 , c v v v v v v v v c y d d c M 8 8 I 5 # {.",
"m.b x L L m s c d s s n = o X .   X o $ b c 3 s s L > V V ; 4 {.",
"].b  .[ ] ] i ] n v = o < 6 6 1 1 1 6 6 X O s 7 s K 3 1 4 , i }.",
"3Xd  ... . .i ] ] $ h v d s s 3 1 , 1 1 1 6   > 3 A 6 3 3 , b 1X",
"9Xp _ ....} ..u .. .] ` n v f s s 6 1 , 1 , 3 , A d B s s > ] 9X",
"9X_.1 :.+.,.#.) k .. .] ] ` n b d d 7 7 1 < , 2 m H E F s 3 R.9X",
"9X9X< 1.q.2.3.-._ k &... .] ] ` ` v c s s 7 < ` ` m K J 2 c 9X9X",
"9X9X$X: W.!.v.B.i.3.u &.&... . .] ] ` n d 7 ] ] ` M ` h , ].9X9X",
"9X9X9Xg., @X(./.Q.H.F.5.z k &... . .h h _ .. .] ]  .] @ W 9X9X9X",
"9X9X9X9XN 2 >XOX}.|.(.c.@.A.8.G >.x |  .u .... . ...: p 9X9X9X9X",
"9X9X9X9X9XC y -X>X@XoXt L.d.m P <.l 6.d d ' &.&. .3 a 9X9X9X9X9X",
"9X9X9X9X9X9Xj.y m.<X;Xu c.U.d >Xi E n.i e r V.} b 7.9X9X9X9X9X9X",
"9X9X9X9X9X9X9X*Xu i m.).l.,Xs.& P.x.[.K. Xc.h b $X9X9X9X9X9X9X9X",
"9X9X9X9X9X9X9X9X9X#XS i l / m.T.Y.b.~ 3 3 i '.9X9X9X9X9X9X9X9X9X",
"9X9X9X9X9X9X9X9X9X9X9X6X&XI.h.T Y f.z.%X5X9X9X9X9X9X9X9X9X9X9X9X"
};
