/* XPM */
static char *_2155b3492354268bfbc704e4a4d205f[] = {
/* columns rows colors chars-per-pixel */
"64 64 253 2 ",
"   c #8D5D00",
".  c #935F00",
"X  c #8E6200",
"o  c #926300",
"O  c #966800",
"+  c #9B6D00",
"@  c #9C7800",
"#  c #A66700",
"$  c #A37400",
"%  c #A47707",
"&  c #A27B00",
"*  c #AB7B00",
"=  c #B87700",
"-  c #D16C00",
";  c #C27300",
":  c #C87A00",
">  c #D47500",
",  c #D57B00",
"<  c #DB7B00",
"1  c #D57B08",
"2  c #D37E14",
"3  c #A78404",
"4  c #B68600",
"5  c #B58C00",
"6  c #B68E0F",
"7  c #9C8A3A",
"8  c #A98E2F",
"9  c #C88703",
"0  c #C48C00",
"q  c #CC8C01",
"w  c #D48301",
"e  c #DC8400",
"r  c #D58B00",
"t  c #DC8B01",
"y  c #C39400",
"u  c #CC9300",
"i  c #CB9A00",
"p  c #D49301",
"a  c #DD9400",
"s  c #D59B01",
"d  c #DB9B01",
"f  c #D9980A",
"g  c #D28918",
"h  c #C49715",
"j  c #DA9B14",
"k  c #E28500",
"l  c #E98500",
"z  c #E38C00",
"x  c #EA8E00",
"c  c #E49301",
"v  c #EB9300",
"b  c #E59B01",
"n  c #ED9B00",
"m  c #E6980A",
"M  c #E39B0E",
"N  c #F29600",
"B  c #F29B00",
"V  c #E39D15",
"C  c #CCA100",
"Z  c #C9AF01",
"A  c #D4A500",
"S  c #DBA301",
"D  c #D4AA00",
"F  c #DCAB00",
"G  c #DBA60C",
"H  c #D8B501",
"J  c #DBA616",
"K  c #DBA41D",
"L  c #DEB41C",
"P  c #E4A300",
"I  c #ECA300",
"U  c #E4AD00",
"Y  c #ECAB01",
"T  c #E6A90D",
"R  c #F1A400",
"E  c #F4AC00",
"W  c #FBAD00",
"Q  c #F4AB08",
"!  c #E6B301",
"~  c #EDB301",
"^  c #ECBA01",
"/  c #EBB50A",
"(  c #F6B200",
")  c #FAB400",
"_  c #F4BB01",
"`  c #FBBC00",
"'  c #F4B80C",
"]  c #E3AC13",
"[  c #E8A81B",
"{  c #EAAD1B",
"}  c #F0A718",
"|  c #E9B618",
" . c #F5B816",
".. c #D89126",
"X. c #DDA524",
"o. c #DDAA2B",
"O. c #DBB72D",
"+. c #DCA738",
"@. c #E8AE23",
"#. c #E6B323",
"$. c #E9B428",
"%. c #ECBA29",
"&. c #F4BE24",
"*. c #F8BC28",
"=. c #EABC36",
"-. c #DEC101",
";. c #EBC300",
":. c #E8CB01",
">. c #F4C400",
",. c #FDC400",
"<. c #F3CA00",
"1. c #FECC00",
"2. c #F7C70B",
"3. c #F4D301",
"4. c #FED300",
"5. c #F6DA00",
"6. c #FEDB01",
"7. c #FAD809",
"8. c #EBC41B",
"9. c #F7C616",
"0. c #F9D616",
"q. c #FFE301",
"w. c #FFEB01",
"e. c #FEE30D",
"r. c #FFED0A",
"t. c #FFF201",
"y. c #FFFA04",
"u. c #FEE414",
"i. c #FEED13",
"p. c #FEEC1C",
"a. c #FFF915",
"s. c #FFF11C",
"d. c #ECC426",
"f. c #F9C628",
"g. c #F8D729",
"h. c #EAC438",
"j. c #F5C236",
"k. c #FAC334",
"l. c #FCCA36",
"z. c #F3CD3B",
"x. c #ECD139",
"c. c #F9D838",
"v. c #FFE623",
"b. c #FFEC23",
"n. c #FEE62D",
"m. c #FFFB25",
"M. c #FEF22C",
"N. c #F3E235",
"B. c #FDEB34",
"V. c #FEEA3A",
"C. c #FEF434",
"Z. c #FFFC34",
"A. c #FEF73C",
"S. c #9E9352",
"D. c #A4974C",
"F. c #ADAE70",
"G. c #DCAC46",
"H. c #DBB44B",
"J. c #D4A551",
"K. c #E7BC45",
"L. c #D7AD65",
"P. c #E3BC64",
"I. c #E1BB7B",
"U. c #DEC448",
"Y. c #E9C74A",
"T. c #F3C846",
"R. c #EED74A",
"E. c #F7D747",
"W. c #F9DC4B",
"Q. c #EBC958",
"!. c #EED35C",
"~. c #FADC54",
"^. c #F6D659",
"/. c #FCE348",
"(. c #FFEC4B",
"). c #FFF443",
"_. c #FFFD45",
"`. c #FEF64B",
"'. c #FFFC4C",
"]. c #FDEB53",
"[. c #FBE25B",
"{. c #FEED5A",
"}. c #FEF353",
"|. c #FFFD54",
" X c #FFF45B",
".X c #FEFA5A",
"XX c #D0CE6C",
"oX c #DBD376",
"OX c #ECC865",
"+X c #E3D56A",
"@X c #F8D863",
"#X c #E6C577",
"$X c #ECD575",
"%X c #F1DB76",
"&X c #FEED63",
"*X c #F8E46A",
"=X c #FDEC6C",
"-X c #FEF663",
";X c #FFF36A",
":X c #FEFC6A",
">X c #FBEC72",
",X c #F5E37B",
"<X c #FEF174",
"1X c #FFFE76",
"2X c #FEF27C",
"3X c #FEFE7C",
"4X c #DDB78D",
"5X c #E1BD8F",
"6X c #CDCC88",
"7X c #D5D184",
"8X c #D1D494",
"9X c #E6C688",
"0X c #F4D680",
"qX c #FADD81",
"wX c #ECCF96",
"eX c #EFD293",
"rX c #EEE583",
"tX c #FAE786",
"yX c #FFF485",
"uX c #FFF48C",
"iX c #FFFE89",
"pX c #F8E597",
"aX c #F7F393",
"sX c #FDF593",
"dX c #FFFC92",
"fX c #FEF79B",
"gX c #FDFB9C",
"hX c #E5C8A5",
"jX c #EED3A3",
"kX c #F5DAA2",
"lX c #E7CDBA",
"zX c #EFD6B3",
"xX c #F1D9B2",
"cX c #E8EDA9",
"vX c #FBE4A6",
"bX c #FEFCA3",
"nX c #F7F8AC",
"mX c #FEFEAB",
"MX c #FBE7B8",
"NX c #FFFFB4",
"BX c #FFFFBB",
"VX c #EBD4C7",
"CX c #F2DDC1",
"ZX c #EDDBD5",
"AX c #F9E9CA",
"SX c #F7E8D6",
"DX c #FCF1DA",
"FX c #F0E2E4",
"GX c #F4E9EC",
"HX c #FBF1E8",
"JX c #F6EEF5",
"KX c #FAF4F8",
"LX c #FFFFFF",
/* pixels */
"LXLXLXLXLXLXLXLXLXLXLXLXLXLXLXLXLXLXLXLXLXLXLXLXLXDXvXpXtX*X[.W.~.[.>XtXpXvXAXLXLXLXLXLXLXLXLXLXLXLXLXLXLXLXLXLXLXLXLXLXLXLXLXLX",
"LXLXLXLXLXLXLXLXLXLXLXLXLXLXLXLXLXLXLXLXLXKXpX~.7.e.u.w.w.t.w.y.a.a.m.Z.).|.}./.*XqXHXLXLXLXLXLXLXLXLXLXLXLXLXLXLXLXLXLXLXLXLXLX",
"LXLXLXLXLXLXLXLXLXLXLXLXLXLXLXLXLXLXLXMXE.4.q.6.q.6.<.U d d d d d d s G L g.C._._.:X].[.pXLXLXLXLXLXLXLXLXLXLXLXLXLXLXLXLXLXLXLX",
"LXLXLXLXLXLXLXLXLXLXLXLXLXLXLXLXLXvXg.4.4.6.>.d p d ^ 1.q.w.w.w.w.w.t.w.5.^ S s J N.'.|.:X~.tXLXLXLXLXLXLXLXLXLXLXLXLXLXLXLXLXLX",
"LXLXLXLXLXLXLXLXLXLXLXLXLXLXLXAXc.4.4.4.P t P 4.6.q.<.,.` ) W ) ) ( :._ _ 5.w.t.w.! p L _.|.:X~.vXLXLXLXLXLXLXLXLXLXLXLXLXLXLXLX",
"LXLXLXLXLXLXLXLXLXLXLXLXLXLX@X7.4.4.a t >.4.1.` ) 1.A & & s ) y 3 3 :.Y W H H W ~ w.w.5.p K A.|.-X@XKXLXLXLXLXLXLXLXLXLXLXLXLXLX",
"LXLXLXLXLXLXLXLXLXLXLXLXDXz.e.q.! e ` 4.` ) u * ) q F 6.6.F W ! q.q.<.E ( -.H ) Y 5.q.q.6.q.p L _.|./.MXLXLXLXLXLXLXLXLXLXLXLXLX",
"LXLXLXLXLXLXLXLXLXLXLXkXW.b.e.w R 1.1._ W s C ,.3 D 4.1.4.F ( U 4.6.;.( I 3.<.Y Y 3.q.E ( ( 5.<.w B.'.{.,XLXLXLXLXLXLXLXLXLXLXLX",
"LXLXLXLXLXLXLXLXLXLX0X>X Xz., ,.,.` ,.U W Y 1.1.,.` E 1.1.U ) U 4.1.^ ) d 6.6.S W :.( ) s 3 q.q.w.p d.Z.}.@XLXLXLXLXLXLXLXLXLXLX",
"LXLXLXLXLXLXLXLXLX$XyXiXH.l ` ( ( ` ,.i ) ( ) ,.) ) 5 1.1.F * y 1.4.D a A 4.4.S ( Y ) 4 Z q.5._ R 4.U J Z.).^.LXLXLXLXLXLXLXLXLX",
"LXLXLXLXLXLXLXLX$X2XiX+.v ) ( ) ) ( ( ` $ ) ` ) u @ ` ,.,.,.>.,.,.,.>.C D 1.1.i ) ` & ;.q.1.( W ) ( >.>.p m.).@XLXLXLXLXLXLXLXLX",
"LXLXLXLXLXLXLXkX[.:X+.x d ( ) $ u ( ( ( ` * & & S ,.) ` 9.g.c.c.V.c.c.0.1.,.1.^ 3 & 1.6.` E ( s & ) E -.1.p a.C.qXLXLXLXLXLXLXLX",
"LXLXLXLXLXLXSXE.C.$.z ( E p ) Y P ` ) ( u ` ` ` ` 9.u.b.r.w.w.r.p.M.A.|.:X;XW.1.,.4.1.A I ` ) U _ ( s 4.6._ d y.B.MXLXLXLXLXLXLX",
"LXLXLXLXLXLXz.w.9.< E R E q ) ) ) $ + * ( ( ) 1.7.6.6.6.q.q.q.q.w.w.i.b.M.C.'.3X=X2.,.,.5 & & ) ( ( i 4.4.6.Y ! w.n.KXLXLXLXLXLX",
"LXLXLXLXLXOXq.q.- E R R R q ( ` * E ( W W ,.4.1.1.4.4.6.6.6.q.q.q.q.w.w.i.b.M.C.A.3X&X,.1.1.1.4 ) W F 4.1.1.6.r 5.w.~.LXLXLXLXLX",
"LXLXLXLXSX3.q.> I n R n R R q Y 9 W R E ,.1.1.1.1.1.1.4.4.4.6.6.q.q.q.q.w.w.r.s.M.C.`.iXf.,.1.A P i ,.1.,.1.1.4., t.u.vXLXLXLXLX",
"LXLXLXLXh.4.I k n n n n n R 9 $ R R E ,.,.,.,.,.1.1.1.1.1.1.4.6.6.6.6.q.q.w.q.w.r.s.M.C.1XW.` 1.5 i 1.,.,.,.1.1.` d w.g.LXLXLXLX",
"LXLXLXxX4.4.- n v n n n n n n R n R ,.` ,.,.>.,.1.,.1.1.1.1.1.4.^ 6.6.6.6.q.q.q.w.w.w.i.s. X[.` ,.,.,.,.,.,.,.,.4.e 5.w.qXLXLXLX",
"LXLXLX| ,.t x v v n v c n n n v R ` ) _ ` ` ,.,.,.,.,.1.1.1.1._ ( >.4.4.6.6.6.q.q.q.w.w.r.i.`.W.) ` ` ,.,.,.,.,.,.,.t q.0.LXLXLX",
"LXLXCX<.,.- n v v v v v x N v n ( ( ( ) _ ` _ ` ` ,.>.,.,.1.<.Y ( Y 4.4.4.4.6.6.5.q.q.q.q.w.w..Xf.) ` ` ` ` ` ,.,.,.e 4.e.pXLXLX",
"LXLXY.` z z x v v v v v v v x R E E ( ( ( ) ) _ _ ` ` ,.,.,.Y ( ( W _ 1.1.1.4.4.6.6.6.q.q.q.w.w.3X) ( ) ` ` ` ` ` ` ` a 4.g.LXLX",
"LXLX( ) > N v x N x v v v v n E R E E ( ( ( ) ) ) ` ` ` ` _ ( ( ( ( Y 1.1.1.1.4.4.4.7.6.6.6.q.q.q.>XE ( ) ) ) ` ` ` ,., 6.7.AXLX",
"LXjX) I < v v v c v x v v z I R R E E E E E ( ( ( ( _ ` ` Y ( ( ( ( ( ~ 1.1.1.1.1.1.4.4.6.6.6.q.q.`. .( ( ( ( ( ' ) ` b ~ 4.qXLX",
"LXY.R , n v x a I x c x x v I I R I R R Y E E E ( ( ( ) Y ( ( E ( ( ( ( >.,.1.1.1.1.1.1.4.4.4.4.6.q.>XR E ( (  .{ ( ) ` e 4.g.LX",
"LXU B > n N v a ( v v v z N n n n I R R R R E E E ( E E E ( ( ( ( ( ( ( Y ,.,.,.1.1.1.1.1.1.4.4.6.6.}.Q E E W k.T W ( ) < 4.<.LX",
"HXI N < c d P n b c d a k n n n n n n n R R I R R E E I ( ( ( ( ( ( ( W ( ( ,.,.,.,.,.1.1.1.4.1.4.1.4.^.n o.{ {  .=.#.] e 1.6.MX",
"zXE k z B c n d a P c n k n v n v n n n n I I I R R I ( ( ( ( ( ( ( ( E ( E _ ,.,.,.,.,.<.1.1.1.1.1.1.{.B n %.[ K  .I W n Y 6.pX",
"eXn < I R I E c ( b B v k v n v N n n n n n n n I R P ( ( ( ( ( ( ( ( ( ( ( U ` ` _ ,.,.,.,.,.,.1.1.1.].B I P l.n j.R R R a 6.0X",
"$Xx , E R R a b b P I e x v v v v v n N n n n n B b ( ( ( ( ( ( ( ( ( E ( ( E _ ` ` _ ` ` ,.,.,.,.1.1.g.{ B $.M b j } R R t q.^.",
"OXx < ( E I R R R n n k v v v v c v v v v v n n v Y ( ( ( ( ( ( ( ( ( ( ( ( ( I _ ) ) ` ` _ ,.,.,.,.,.7.T.m v n n n b I R w w.E.",
"K.B k ) E E E E E R E e v x v x x x v v v v N v c ) ( ( ( ( ( ( ( ( ( ( ( ( ( ( Y ( ) ( _ ` ` ` _ ,.,.,.T.v n n n n n n R 1 C.E.",
"K.R k ) ( ( E E ( E E e N c x c v v v c c v v v E ) ( ( ( E ( ( W ( ( ( ( ( ( ( Y E ( _ ) ) _ ` ` ` ` ,.T.x v v N n N n n 1  X^.",
"K.( z ` ) ' ( ( ( W ( e n n n x v v v x c v x c ( ( ( ( ( ( ( W ( ( ( ( ( ( ( ( ( I E ( ( E ) ) _ _ ` ` T.l N x v v m N N 2 3X!.",
"Y.` c ,.` T k.) Q #.) e R n n N v N c x x x z _ ( ( ( ( ( ( ( ( ( ( ( ( ( W ( ( ( E R E E ( ( ( ( ) ` _ T.x [ f x *.j N n 2 iX@X",
"OX` b ,.,.~  .&.f.' ` t ( I I n n n v v v x n ) ( ( ( W ( ( ( ( ( ( ( W ( ( ( ( ( ( P E R E E E ( ( ( _ K.x z k.[ @.x x v 2 iX%X",
"9X1.n 1.,.f.&.K | ~ ,.z ( E E R I n n n n c ) ( W ( ( ) ) ) ) ` ) ) ) ` ) ( ( ( ( ( ( n R E R E R ( W 9.} x z V X.V *.x v ..1X0X",
"wX4.Y ,.o.| '  .l.f. .E n ) ( E E R R B N Y ( ( ) ` ` I 4 $ O X   o o $ 4 Y ` ` ) ( ( P R R R R R E R c.x V @.l.V } j o.x X.-XeX",
"VX4.` _ 1.>.f.2./ ~ / ,.t ,.` ) ( E ( R I ( ( ` s +   # w x N N B N N v , # . + I ` ( ) c I R R R R R z.x c c t m k.e z < d.`.kX",
"KX^ 1.Y 4.1.2.| 1.,.1.1.r 1.,.` _ ) ( E ( ` 0 o = B B B v x x z x x v n N N B N # o s ` Y n B I R R R j.x v v v M [ x n - q.n.CX",
"LX] ,.Y 4.1.1.2.4.1.1.1.b ) 1.,.` ` ` ( P X p W R R n B n N v v c v x x x v v v N B = X ) n n n n I &.m N n n n v c v N > t.9.LX",
"LXP.,.I 6.4.4.4.4.1.1.1.4.w 4.1.1.,.,.4 3 ,.) W E E R R n n n N N v v z v v x v v v n B . 9 B B n N j.B B n n n v n n N t q.Y.LX",
"LXlX>.( >.6.4.4.4.4.4.4.4.d >.4.1.1.3 U ,.` ` ` ( W E R R R n n n v n x c x v x v v v x B = = B v { Q R R I B n N n B < _ e.eXLX",
"LXLXP ( U q.6.6.6.6.5.9.4.6., q.4.4.1.1.1.,.,.` ` ` ( ( ( R R R I n n N v v v x v x v v v N v v x d.R R { R R R R n R > 4.<.HXLX",
"LXLXP.E v q.q.6.6.q.6.&.7.6.~ S 6.4.4.1.1.1.,.,.,.` ` ) ( ( ( E R R n n n v n x x c v x v v v x @.W E R %.I R E Q I n c 1.h.LXLX",
"LXLXFXY R | r.q.L h.f.0.8.6.w.r 1.6.6.4.4.4.1.1.1.,.,.,.` ` ) ( ( E R R n B n v n x c v x v v m ' ) ( T k. .j.X.R E < ,.1.xXLXLX",
"LXLXLX+.B z B.v.u.0.8.L 0.%.L w.; q.6.4.4.4.4.4.1.1.1.,.,.` ` ` ) ( ( E E R R n n n v x v x v / ) ] $. .{ @.I Y ( ( t ` | LXLXLX",
"LXLXLXZXI v { ).B.l.d.g.d.7.q.q.w.= q.q.6.6.4.4.4.1.1.1.1.,.,.,.` ` ) ( ( E R R I n n N n x ~ ` ` ` ( $.' { k.( ( e ) ,.jXLXLXLX",
"LXLXLXLXG.n k {.W.h.x.k.N.b.v.u.u.r.; 3.w.6.6.6.6.4.4.1.4.1.1.,.,.,.` _ ) ( ( E R R R R v U ,.,.,.` ` _ f.{ ]  .E z ( #.LXLXLXLX",
"LXLXLXLXJXS x M *X&X XR.h.(.V.V.v.v.s.q S t.q.6.6.6.6.4.4.1.1.1.1.,.,.,.,.` ) ) ( ( E v _ 1.,.,.,.,.,.' { ,.` / e R _ ZXLXLXLXLX",
"LXLXLXLXLX5XR l =.3X;X=X^.-X{.].(.(.V.C.8.: 3.w.q.q.6.6.6.4.4.4.1.1.1.1.,.,.` ` ` R a ,.1.1.,.1.,.,.,.' ,.,.,.v v E P.LXLXLXLXLX",
"LXLXLXLXLXLX+.n < %XiX2X<X<X=X&X&X{.].(.(.).K 9 ;.t.q.q.q.6.6.4.4.4.4.1.1.1.1.Y a _ 6.4.1.1.1.1.1.,.1.,.,.1.Y k B ] LXLXLXLXLXLX",
"LXLXLXLXLXLXKXS n e tXiXyXyX2X2X<X=X=X&X&X].}.'.=.g u U 5.q.q.q.q.6.6.1.P d P ;.q.4.6.7.4.4.4.4.1.4.1.1.4._ < v U HXLXLXLXLXLXLX",
"LXLXLXLXLXLXLXFXP n k aXfXsXuXyXyX2X2X2X<X>X;X{./. X Xx.K j j j f f S / 5.w.6.w.U E 5.4.6.4.4.4.4.4.4.4.,., x Y zXLXLXLXLXLXLXLX",
"LXLXLXLXLXLXLXLXVX! n t aXbXfXfXsXuXuXyXyXyXE.Q R W z.:X-X(.g.n.).C.0.2.p.U E 1.D ( <.q.6.5.6.4.6.4.6.<.< v I wXLXLXLXLXLXLXLXLX",
"LXLXLXLXLXLXLXLXLXlX/ I v %XNXfXfXfXfXsXsXaXE s F.h E *Xz.W p E ( {.L R N.G ( W F W ^ q.6.q.6.6.6.q.^ k B ~ 9XLXLXLXLXLXLXLXLXLX",
"LXLXLXLXLXLXLXLXLXLXVXF ( c K.NXbXbXbXfXbX$XW H.gXoX7 oX( h XXD.W z.h.R R.O.W ( ( ( Y p.e.q.q.q.q.U n E ~ hXLXLXLXLXLXLXLXLXLXLX",
"LXLXLXLXLXLXLXLXLXLXLXFXK >.R G aXNXbXbXbX7XW Q.BX@XgXrXR U.dXrXE $.Y.W R.U.) 8 p ) ) N.n.p.b.0.P ` ,.! VXLXLXLXLXLXLXLXLXLXLXLX",
"LXLXLXLXLXLXLXLXLXLXLXLXLXJ.>.( b =.mXNXbXnX6 W f.) b 8XW j.BX,XW O.+XQ Y.+XW 9.XX3 % Y.`./.] _ 1.1.o.JXLXLXLXLXLXLXLXLXLXLXLXLX",
"LXLXLXLXLXLXLXLXLXLXLXLXLXLXhXJ >.~ b Y.bXNXcXS.3 % F.NX8 W ) W p 6X$XQ h.aX* 8 3X2X3X&X%.U 1.6.^ 5XLXLXLXLXLXLXLXLXLXLXLXLXLXLX",
"LXLXLXLXLXLXLXLXLXLXLXLXLXLXLXKXL.^ ,.~ b #.%XNXBXBXNXmXnXS.7 D.6XmXaXS.oXgXgXbXdX!.@.E ,.1.>.G.JXLXLXLXLXLXLXLXLXLXLXLXLXLXLXLX",
"LXLXLXLXLXLXLXLXLXLXLXLXLXLXLXLXLXGXL.U <.~ R b $.Q.%XgXNXBXBXBXBXNXNXNXbX%XQ.[ c R ) ,.~ H.ZXLXLXLXLXLXLXLXLXLXLXLXLXLXLXLXLXLX",
"LXLXLXLXLXLXLXLXLXLXLXLXLXLXLXLXLXLXLXKX4Xo.^ >.E E n c t c V V V M z e e l N N E Y V I.GXLXLXLXLXLXLXLXLXLXLXLXLXLXLXLXLXLXLXLX",
"LXLXLXLXLXLXLXLXLXLXLXLXLXLXLXLXLXLXLXLXLXLXFX4XH.G U _ ~ R n v x v n n R P a +.I.ZXLXLXLXLXLXLXLXLXLXLXLXLXLXLXLXLXLXLXLXLXLXLX",
"LXLXLXLXLXLXLXLXLXLXLXLXLXLXLXLXLXLXLXLXLXLXLXLXLXLXJXlXhX9X#X#X#X#X9XhXlXGXLXLXLXLXLXLXLXLXLXLXLXLXLXLXLXLXLXLXLXLXLXLXLXLXLXLX"
};
