/* XPM */
static char *_d3072cb7f484824d0fd6f544eefbc4e[] = {
/* columns rows colors chars-per-pixel */
"16 16 141 2 ",
"   c #D38200",
".  c #D98700",
"X  c #D78C00",
"o  c #D79500",
"O  c #D89000",
"+  c #DA9A00",
"@  c #E48300",
"#  c #E98F00",
"$  c #E49200",
"%  c #E59507",
"&  c #EA9100",
"*  c #EC9000",
"=  c #EB9600",
"-  c #EC9500",
";  c #E99504",
":  c #E79900",
">  c #EB9800",
",  c #EC9A00",
"<  c #EB9C00",
"1  c #ED9C00",
"2  c #E99907",
"3  c #F09F00",
"4  c #DEA000",
"5  c #E0A400",
"6  c #E9A300",
"7  c #EAA500",
"8  c #E8A800",
"9  c #EBAD00",
"0  c #E9AF00",
"q  c #EFAE00",
"w  c #EEAA08",
"e  c #EEAC0F",
"r  c #F0A200",
"t  c #F2A500",
"y  c #F2A900",
"u  c #F2AB00",
"i  c #F4AB00",
"p  c #F4AC00",
"a  c #F1A709",
"s  c #F2AE0E",
"d  c #E7B600",
"f  c #EEB200",
"g  c #EBBA00",
"h  c #EEBA00",
"j  c #EDB90B",
"k  c #F5B000",
"l  c #F2B700",
"z  c #F4B500",
"x  c #F8B100",
"c  c #F9B400",
"v  c #F0BE00",
"b  c #F9B900",
"n  c #FABD00",
"m  c #F6B909",
"M  c #F7BB0D",
"N  c #EAA011",
"B  c #EBA013",
"V  c #ECA611",
"C  c #F2B712",
"Z  c #F0BC1B",
"A  c #E3B422",
"S  c #EEB722",
"D  c #EAA735",
"F  c #E9AB39",
"G  c #E8B03C",
"H  c #F1C500",
"J  c #F7C700",
"K  c #F4C606",
"L  c #FDC200",
"P  c #FCC400",
"I  c #F5CA00",
"U  c #F5CF00",
"Y  c #F0CC06",
"T  c #FFCA00",
"R  c #FBCC00",
"E  c #F6C308",
"W  c #F6C20C",
"Q  c #FAC408",
"!  c #FFD300",
"~  c #FFDB00",
"^  c #FFDE00",
"/  c #FFDA06",
"(  c #F7D40C",
")  c #F0CF1F",
"_  c #FACF1F",
"`  c #F7D917",
"'  c #FEDA16",
"]  c #FFE300",
"[  c #FFE600",
"{  c #FFE800",
"}  c #FFEF08",
"|  c #FFF312",
" . c #F0C627",
".. c #F4C228",
"X. c #F1CE2E",
"o. c #F7DC24",
"O. c #E5C438",
"+. c #F5C938",
"@. c #F7D537",
"#. c #FFE235",
"$. c #FFEE35",
"%. c #FFF73D",
"&. c #EEBE4A",
"*. c #EEBA53",
"=. c #ECBD72",
"-. c #E2C042",
";. c #E7C945",
":. c #EEC14D",
">. c #F1C945",
",. c #F6D74F",
"<. c #EEC453",
"1. c #E2C952",
"2. c #E9D15F",
"3. c #F8D855",
"4. c #FEEA47",
"5. c #F9E74F",
"6. c #F5E155",
"7. c #F0C66E",
"8. c #EDCA73",
"9. c #EAD972",
"0. c #F3D278",
"q. c #F7D77F",
"w. c #F8E26E",
"e. c #FAEA6F",
"r. c #FFF36E",
"t. c #FBE477",
"y. c #FAE47C",
"u. c #FAE979",
"i. c #FBEA7E",
"p. c #FDE87F",
"a. c #F6D282",
"s. c #F3D583",
"d. c #F4D285",
"f. c #F8E686",
"g. c #FCF492",
"h. c #FCF5A4",
"j. c #FFFFAD",
"k. c #FFFFF3",
"l. c #FEFFFA",
"z. c #FBFAFF",
"x. c gray100",
/* pixels */
"x.x.x.x.l.p.@.` o.6.h.x.x.x.x.x.",
"x.x.x.i.z 7 d 8 g h I Y g.x.x.x.",
"x.x.f.6 z 5 9 j W h 4 v 9 5.x.x.",
"x.u., 7 o L / { | %.#.4 f L e.x.",
"l.> - $ c P P R R ] } $.l P l k.",
"q.@ & , p k b z p R ! ] _ k y t.",
"D : : & 1 r y k k l P T ' V e ..",
"N y < & & & y k x k z n T N > Z ",
"C M w 3 & , c c c c p p b N 2 &.",
"+.E Q k x 5 O     X + r s ; % >.",
"d.! ~ v J b c t - * * . a r # y.",
"z.q X.( H ~ R L c t - 1 m S , l.",
"x.=.,.r.4.) U ^ ! b l ! T y 7.x.",
"x.x.G w.j.3.;.A W K v [ L F x.x.",
"x.x.x.8. .2.9.-.-.1.O.J 0.x.x.x.",
"x.x.x.x.z.s.<.:.*.*.a.z.x.x.x.x."
};
